<?xml version="1.0" encoding="UTF-8" standalone="no"?><svg xmlns:svg="http://www.w3.org/2000/svg" xmlns="http://www.w3.org/2000/svg" xmlns:xlink="http://www.w3.org/1999/xlink" version="1.0" width="320px" height="40px" viewBox="0 0 128 16" xml:space="preserve"><rect x="0" y="0" width="100%" height="100%" fill="#FFFFFF" /><linearGradient id="linear-gradient" gradientTransform="rotate(90)"><stop offset="0%" stop-color="#ffffff" stop-opacity="0.8"/><stop offset="100%" stop-color="#ffffff" stop-opacity="0"/></linearGradient><path d="M-0.8-.8H128.8V16.8H-0.8V-0.8Z" fill="#d4d7ff"/><g><path d="M-31.935,16l16-16H-0.1l-16,16H-31.935Zm32,0,16-16H31.9l-16,16H0.065Zm32,0,16-16H63.9l-16,16H32.065Zm32,0,16-16H95.9l-16,16H64.065Zm32,0,16-16H127.9l-16,16H96.065Z" fill="#0013ff"/><animateTransform attributeName="transform" type="translate" from="32 0" to="0 0" dur="1200ms" repeatCount="indefinite"/></g><path d="M0.8,0.8V15.2H0V0H128V0.8H0.8Z" fill="#9ca3ff"/><path d="M127.2,16H0V15.2H127.2V0H128V16h-0.8Z" fill="#a6adff"/><path d="M0.8,0.8H127.2V9.6H0.8V0.8Z" fill="url(#linear-gradient)" fill-rule="evenodd"/></svg>